<svg width="16" height="16" viewBox="0 0 16 16" fill="none" xmlns="http://www.w3.org/2000/svg">
<g id="&#229;&#138;&#160;">
<path id="Union" fill-rule="evenodd" clip-rule="evenodd" d="M8.50008 2.66669C8.50008 2.39054 8.27622 2.16669 8.00008 2.16669C7.72394 2.16669 7.50008 2.39054 7.50008 2.66669V7.50002H2.66675C2.39061 7.50002 2.16675 7.72388 2.16675 8.00002C2.16675 8.27616 2.39061 8.50002 2.66675 8.50002H7.50008V13.3334C7.50008 13.6095 7.72394 13.8334 8.00008 13.8334C8.27622 13.8334 8.50008 13.6095 8.50008 13.3334V8.50002H13.3334C13.6096 8.50002 13.8334 8.27616 13.8334 8.00002C13.8334 7.72388 13.6096 7.50002 13.3334 7.50002H8.50008V2.66669Z" fill="#86909C"/>
</g>
</svg>
