<svg width="16" height="16" viewBox="0 0 16 16" fill="none" xmlns="http://www.w3.org/2000/svg">
<g id="&#229;&#143;&#137;">
<path id="Union" fill-rule="evenodd" clip-rule="evenodd" d="M3.68681 2.97976C3.49154 2.7845 3.17496 2.7845 2.9797 2.97976C2.78444 3.17502 2.78444 3.4916 2.9797 3.68687L7.29281 7.99998L2.9797 12.3131C2.78444 12.5084 2.78444 12.8249 2.9797 13.0202C3.17496 13.2155 3.49154 13.2155 3.68681 13.0202L7.99992 8.70709L12.313 13.0202C12.5083 13.2155 12.8249 13.2155 13.0201 13.0202C13.2154 12.8249 13.2154 12.5084 13.0201 12.3131L8.70703 7.99998L13.0201 3.68687C13.2154 3.4916 13.2154 3.17502 13.0201 2.97976C12.8249 2.7845 12.5083 2.7845 12.313 2.97976L7.99992 7.29287L3.68681 2.97976Z" fill="black"/>
</g>
</svg>
