<svg width="16" height="16" viewBox="0 0 16 16" fill="none" xmlns="http://www.w3.org/2000/svg">
<g id="&#231;&#170;&#151;&#229;&#143;&#163;&#232;&#191;&#152;&#229;&#142;&#159;">
<path id="Union" fill-rule="evenodd" clip-rule="evenodd" d="M5.33325 2.16669C5.05711 2.16669 4.83325 2.39054 4.83325 2.66669V4.16669H3.33325C3.05711 4.16669 2.83325 4.39054 2.83325 4.66669V12.6667C2.83325 12.9428 3.05711 13.1667 3.33325 13.1667H11.3333C11.6094 13.1667 11.8333 12.9428 11.8333 12.6667V11.1667H13.3333C13.6094 11.1667 13.8333 10.9428 13.8333 10.6667V2.66669C13.8333 2.39054 13.6094 2.16669 13.3333 2.16669H5.33325ZM11.8333 10.1667H12.8333V3.16669H5.83325V4.16669H11.3333C11.6094 4.16669 11.8333 4.39054 11.8333 4.66669V10.1667ZM5.33325 5.16669H3.83325V12.1667H10.8333V10.6667V5.16669H5.33325Z" fill="black"/>
</g>
</svg>
